<svg xmlns="http://www.w3.org/2000/svg" xmlns:xlink="http://www.w3.org/1999/xlink" xmlns:lucid="lucid" width="1320" height="920"><g transform="translate(20 -20)" lucid:page-tab-id="xt59wH_l~fTb"><path d="M0 46c0-3.3 2.7-6 6-6h1268c3.3 0 6 2.7 6 6v868c0 3.3-2.7 6-6 6H6c-3.3 0-6-2.7-6-6z" stroke="#5e5e5e" stroke-width="2" fill="#fff"/><use xlink:href="#a" transform="matrix(1,0,0,1,5,45) translate(298.85802469135797 867.4311921777777)"/><use xlink:href="#b" transform="matrix(1,0,0,1,5,45) translate(318.61111111111103 867.4311921777777)"/><use xlink:href="#c" transform="matrix(1,0,0,1,5,45) translate(392.6234567901234 867.4311921777777)"/><use xlink:href="#d" transform="matrix(1,0,0,1,5,45) translate(459.16666666666663 867.4311921777777)"/><use xlink:href="#e" transform="matrix(1,0,0,1,5,45) translate(549.2283950617283 867.4311921777777)"/><use xlink:href="#f" transform="matrix(1,0,0,1,5,45) translate(586.2654320987654 867.4311921777777)"/><use xlink:href="#g" transform="matrix(1,0,0,1,5,45) translate(663.9814814814814 867.4311921777777)"/><use xlink:href="#h" transform="matrix(1,0,0,1,5,45) translate(782.3765432098764 867.4311921777777)"/><use xlink:href="#e" transform="matrix(1,0,0,1,5,45) translate(825.5864197530864 867.4311921777777)"/><use xlink:href="#i" transform="matrix(1,0,0,1,5,45) translate(862.6234567901234 867.4311921777777)"/><path d="M40 86c0-3.3 2.7-6 6-6h408c3.3 0 6 2.7 6 6v728c0 3.3-2.7 6-6 6H46c-3.3 0-6-2.7-6-6z" stroke="#5e5e5e" stroke-width="2" fill="#fff"/><use xlink:href="#j" transform="matrix(1,0,0,1,45,85) translate(154.84567901234567 729.3430001777778)"/><path d="M840 366c0-3.3 2.7-6 6-6h368c3.3 0 6 2.7 6 6v488c0 3.3-2.7 6-6 6H846c-3.3 0-6-2.7-6-6z" stroke="#5e5e5e" stroke-width="2" fill="#fff"/><use xlink:href="#k" transform="matrix(1,0,0,1,845,365) translate(145.55555555555554 487.1736305777777)"/><path d="M280 106c0-3.3 2.7-6 6-6h148c3.3 0 6 2.7 6 6v108c0 3.3-2.7 6-6 6H286c-3.3 0-6-2.7-6-6z" stroke="#000" stroke-width="4" fill="#99d2f2"/><use xlink:href="#l" transform="matrix(1,0,0,1,292,112) translate(42.72222222222222 53.77777777777778)"/><path d="M280 346c0-3.3 2.7-6 6-6h148c3.3 0 6 2.7 6 6v108c0 3.3-2.7 6-6 6H286c-3.3 0-6-2.7-6-6z" stroke="#000" stroke-width="4" fill="#99d2f2"/><use xlink:href="#m" transform="matrix(1,0,0,1,292,352) translate(16.209876543209873 53.77777777777778)"/><use xlink:href="#n" transform="matrix(1,0,0,1,292,352) translate(77.93827160493828 53.77777777777778)"/><path d="M280 646c0-3.3 2.7-6 6-6h148c3.3 0 6 2.7 6 6v108c0 3.3-2.7 6-6 6H286c-3.3 0-6-2.7-6-6z" stroke="#000" stroke-width="4" fill="#99d2f2"/><use xlink:href="#o" transform="matrix(1,0,0,1,292,652) translate(0.8395061728395206 53.77777777777778)"/><use xlink:href="#p" transform="matrix(1,0,0,1,292,652) translate(78.49382716049384 53.77777777777778)"/><path d="M60 526c0-3.3 2.7-6 6-6h148c3.3 0 6 2.7 6 6v108c0 3.3-2.7 6-6 6H66c-3.3 0-6-2.7-6-6z" stroke="#000" stroke-width="4" fill="#99d2f2"/><use xlink:href="#q" transform="matrix(1,0,0,1,72,532) translate(37.19753086419753 53.77777777777778)"/><path d="M60 286c0-3.3 2.7-6 6-6h148c3.3 0 6 2.7 6 6v108c0 3.3-2.7 6-6 6H66c-3.3 0-6-2.7-6-6z" stroke="#000" stroke-width="4" fill="#99d2f2"/><use xlink:href="#r" transform="matrix(1,0,0,1,72,292) translate(35.19135802469136 53.77777777777778)"/><path d="M360 223v96.5" stroke="#5e5e5e" stroke-width="2" fill="none"/><path d="M361 223.03h-2V222h2z" fill="#5e5e5e"/><path d="M360 334.76l-4.64-14.26h9.28z" stroke="#5e5e5e" stroke-width="2" fill="#5e5e5e"/><path d="M360 463v156.5" stroke="#5e5e5e" stroke-width="2" fill="none"/><path d="M361 463.03h-2V462h2z" fill="#5e5e5e"/><path d="M360 634.76l-4.64-14.26h9.28z" stroke="#5e5e5e" stroke-width="2" fill="#5e5e5e"/><path d="M259.5 699.78l-25.6-.3-15.2-.93-10.83-1.13-8.43-1.24-6.84-1.3-5.7-1.34-4.87-1.35-4.2-1.37-3.66-1.36-3.24-1.36-2.88-1.35-2.58-1.35-2.34-1.34-2.12-1.35-1.92-1.33-1.77-1.35-1.62-1.35-1.5-1.35-1.4-1.37-1.3-1.38-1.2-1.4-1.14-1.42-1.05-1.44-1-1.47-.9-1.5-.86-1.57-.8-1.6-.73-1.65-.67-1.7-.62-1.8-.56-1.87-.5-1.97-.44-2.07-.37-2.2-.3-2.33-.2-2.48-.12-2.7v-.4" stroke="#5e5e5e" stroke-width="2" fill="none"/><path d="M274.76 699.96l-14.32 4.47.1-9.27z" stroke="#5e5e5e" stroke-width="2" fill="#5e5e5e"/><path d="M141 643.02l-2 .02V642h2z" fill="#5e5e5e"/><path d="M140 517v-96.5" stroke="#5e5e5e" stroke-width="2" fill="none"/><path d="M141 518h-2v-1.03h2z" fill="#5e5e5e"/><path d="M140 405.24l4.64 14.26h-9.28z" stroke="#5e5e5e" stroke-width="2" fill="#5e5e5e"/><path d="M300 226c0-3.3 2.7-6 6-6h88c3.3 0 6 2.7 6 6v48c0 3.3-2.7 6-6 6h-88c-3.3 0-6-2.7-6-6z" stroke="#000" stroke-opacity="0" stroke-width="2" fill="#fff" fill-opacity="0"/><use xlink:href="#s" transform="matrix(1,0,0,1,305,225) translate(40.06172839506173 29.84722222222222)"/><path d="M340 286c0-3.3 2.7-6 6-6h88c3.3 0 6 2.7 6 6v48c0 3.3-2.7 6-6 6h-88c-3.3 0-6-2.7-6-6z" stroke="#000" stroke-opacity="0" stroke-width="2" fill="#fff" fill-opacity="0"/><use xlink:href="#t" transform="matrix(1,0,0,1,345,285) translate(31.66666666666667 29.84722222222222)"/><path d="M280 466c0-3.3 2.7-6 6-6h88c3.3 0 6 2.7 6 6v48c0 3.3-2.7 6-6 6h-88c-3.3 0-6-2.7-6-6z" stroke="#000" stroke-opacity="0" stroke-width="2" fill="#fff" fill-opacity="0"/><use xlink:href="#u" transform="matrix(1,0,0,1,285,465) translate(31.66666666666667 29.84722222222222)"/><path d="M200 646c0-3.3 2.7-6 6-6h88c3.3 0 6 2.7 6 6v48c0 3.3-2.7 6-6 6h-88c-3.3 0-6-2.7-6-6z" stroke="#000" stroke-opacity="0" stroke-width="2" fill="#fff" fill-opacity="0"/><use xlink:href="#u" transform="matrix(1,0,0,1,205,645) translate(31.66666666666667 29.84722222222222)"/><path d="M140 441c0-3.3 2.7-6 6-6h68c3.3 0 6 2.7 6 6v38c0 3.3-2.7 6-6 6h-68c-3.3 0-6-2.7-6-6z" stroke="#000" stroke-opacity="0" stroke-width="2" fill="#fff" fill-opacity="0"/><use xlink:href="#v" transform="matrix(1,0,0,1,145,440) translate(9.722222222222221 25.27777777777778)"/><path d="M360 506c0-3.3 2.7-6 6-6h88c3.3 0 6 2.7 6 6v48c0 3.3-2.7 6-6 6h-88c-3.3 0-6-2.7-6-6z" stroke="#000" stroke-opacity="0" stroke-width="2" fill="#fff" fill-opacity="0"/><use xlink:href="#w" transform="matrix(1,0,0,1,365,505) translate(1.2345679012345627 30.27777777777778)"/><path d="M880 396c0-3.3 2.7-6 6-6h148c3.3 0 6 2.7 6 6v108c0 3.3-2.7 6-6 6H886c-3.3 0-6-2.7-6-6z" stroke="#000" stroke-width="4" fill="#99d2f2"/><use xlink:href="#m" transform="matrix(1,0,0,1,892,402) translate(3.864197530864203 53.77777777777778)"/><use xlink:href="#x" transform="matrix(1,0,0,1,892,402) translate(65.59259259259261 53.77777777777778)"/><path d="M1040 546c0-3.3 2.7-6 6-6h148c3.3 0 6 2.7 6 6v108c0 3.3-2.7 6-6 6h-148c-3.3 0-6-2.7-6-6z" stroke="#000" stroke-width="4" fill="#99d2f2"/><use xlink:href="#y" transform="matrix(1,0,0,1,1052,552) translate(20.53086419753086 38.77777777777778)"/><use xlink:href="#z" transform="matrix(1,0,0,1,1052,552) translate(22.598765432098766 65.44444444444446)"/><path d="M880 706c0-3.3 2.7-6 6-6h148c3.3 0 6 2.7 6 6v108c0 3.3-2.7 6-6 6H886c-3.3 0-6-2.7-6-6z" stroke="#000" stroke-width="4" fill="#99d2f2"/><use xlink:href="#A" transform="matrix(1,0,0,1,892,712) translate(28.555555555555557 38.77777777777778)"/><use xlink:href="#B" transform="matrix(1,0,0,1,892,712) translate(37.19753086419753 65.44444444444446)"/><path d="M1043 450.03l4.46.12 5.33.46 5.18.75 5.05 1 4.92 1.3 4.78 1.54 4.63 1.78 4.5 2.03 4.33 2.28 4.17 2.5 4 2.72 3.85 2.93 3.67 3.14 3.46 3.34 3.28 3.54 3.07 3.7 2.87 3.9 2.65 4.05 2.42 4.2 2.2 4.37 1.95 4.52 1.7 4.65 1.45 4.8 1.2 4.93.2 1.04" stroke="#5e5e5e" stroke-width="2" fill="none"/><path d="M1043.05 449.03l-.05 2-1-.03v-2z" fill="#5e5e5e"/><path d="M1129.84 534.78l-6.02-13.74 9.22-.9z" stroke="#5e5e5e" stroke-width="2" fill="#5e5e5e"/><path d="M1117.9 680.34l-.54 2.4-1.42 4.8-1.7 4.65-2 4.47L1110 701l-2.5 4.13-2.77 3.96-3 3.75-3.24 3.56-3.47 3.36-3.67 3.13-3.88 2.88-4.07 2.65-4.24 2.4-4.43 2.13-4.6 1.87-4.76 1.58-4.92 1.3-5.07 1-5.23.66-5.38.35-1.77.04" stroke="#5e5e5e" stroke-width="2" fill="none"/><path d="M1119.63 665.22l3 14.7-9.22-1.05z" stroke="#5e5e5e" stroke-width="2" fill="#5e5e5e"/><path d="M1043.04 740.74H1042v-2h1z" fill="#5e5e5e"/><path d="M570 406c0-3.3 2.7-6 6-6h148c3.3 0 6 2.7 6 6v108c0 3.3-2.7 6-6 6H576c-3.3 0-6-2.7-6-6z" stroke="#5e5e5e" stroke-width="2" fill="#99d2f2"/><g><use xlink:href="#m" transform="matrix(1,0,0,1,582,412) translate(16.209876543209873 53.77777777777778)"/><use xlink:href="#n" transform="matrix(1,0,0,1,582,412) translate(77.93827160493828 53.77777777777778)"/></g><path d="M530 546c0-3.3 2.7-6 6-6h228c3.3 0 6 2.7 6 6v48c0 3.3-2.7 6-6 6H536c-3.3 0-6-2.7-6-6z" stroke="#000" stroke-opacity="0" stroke-width="2" fill="#fff" fill-opacity="0"/><g><use xlink:href="#C" transform="matrix(1,0,0,1,535,545) translate(45.9567901234568 30.27777777777778)"/><use xlink:href="#D" transform="matrix(1,0,0,1,535,545) translate(123.67283950617283 30.27777777777778)"/></g><path d="M462 450h88.5" stroke="#5e5e5e" stroke-width="2" fill="none"/><path d="M462.03 451H461v-2h1.03z" fill="#5e5e5e"/><path d="M565.76 450l-14.26 4.64v-9.28z" stroke="#5e5e5e" stroke-width="2" fill="#5e5e5e"/><path d="M732 458.67h88.5" stroke="#5e5e5e" stroke-width="2" fill="none"/><path d="M732.03 459.67H731v-2h1.03z" fill="#5e5e5e"/><path d="M835.76 458.67l-14.26 4.63v-9.27z" stroke="#5e5e5e" stroke-width="2" fill="#5e5e5e"/><defs><path d="M205 0l-28-72H64L36 0H1l101-248h38L239 0h-34zm-38-99l-47-123c-12 45-31 82-46 123h93" id="E"/><use transform="matrix(0.06172839506172839,0,0,0.06172839506172839,0,0)" xlink:href="#E" id="a"/><path d="M135-143c-3-34-86-38-87 0 15 53 115 12 119 90S17 21 10-45l28-5c4 36 97 45 98 0-10-56-113-15-118-90-4-57 82-63 122-42 12 7 21 19 24 35" id="F"/><path d="M106-169C34-169 62-67 57 0H25v-261h32l-1 103c12-21 28-36 61-36 89 0 53 116 60 194h-32v-121c2-32-8-49-39-48" id="G"/><path d="M141-36C126-15 110 5 73 4 37 3 15-17 15-53c-1-64 63-63 125-63 3-35-9-54-41-54-24 1-41 7-42 31l-33-3c5-37 33-52 76-52 45 0 72 20 72 64v82c-1 20 7 32 28 27v20c-31 9-61-2-59-35zM48-53c0 20 12 33 32 33 41-3 63-29 60-74-43 2-92-5-92 41" id="H"/><path d="M114-163C36-179 61-72 57 0H25l-1-190h30c1 12-1 29 2 39 6-27 23-49 58-41v29" id="I"/><path d="M100-194c63 0 86 42 84 106H49c0 40 14 67 53 68 26 1 43-12 49-29l28 8c-11 28-37 45-77 45C44 4 14-33 15-96c1-61 26-98 85-98zm52 81c6-60-76-77-97-28-3 7-6 17-6 28h103" id="J"/><path d="M85-194c31 0 48 13 60 33l-1-100h32l1 261h-30c-2-10 0-23-3-31C134-8 116 4 85 4 32 4 16-35 15-94c0-66 23-100 70-100zm9 24c-40 0-46 34-46 75 0 40 6 74 45 74 42 0 51-32 51-76 0-42-9-74-50-73" id="K"/><g id="b"><use transform="matrix(0.06172839506172839,0,0,0.06172839506172839,0,0)" xlink:href="#F"/><use transform="matrix(0.06172839506172839,0,0,0.06172839506172839,11.11111111111111,0)" xlink:href="#G"/><use transform="matrix(0.06172839506172839,0,0,0.06172839506172839,23.45679012345679,0)" xlink:href="#H"/><use transform="matrix(0.06172839506172839,0,0,0.06172839506172839,35.80246913580247,0)" xlink:href="#I"/><use transform="matrix(0.06172839506172839,0,0,0.06172839506172839,43.148148148148145,0)" xlink:href="#J"/><use transform="matrix(0.06172839506172839,0,0,0.06172839506172839,55.49382716049382,0)" xlink:href="#K"/></g><path d="M210-169c-67 3-38 105-44 169h-31v-121c0-29-5-50-35-48C34-165 62-65 56 0H25l-1-190h30c1 10-1 24 2 32 10-44 99-50 107 0 11-21 27-35 58-36 85-2 47 119 55 194h-31v-121c0-29-5-49-35-48" id="L"/><path d="M100-194c62-1 85 37 85 99 1 63-27 99-86 99S16-35 15-95c0-66 28-99 85-99zM99-20c44 1 53-31 53-75 0-43-8-75-51-75s-53 32-53 75 10 74 51 75" id="M"/><path d="M24 0v-261h32V0H24" id="N"/><g id="c"><use transform="matrix(0.06172839506172839,0,0,0.06172839506172839,0,0)" xlink:href="#L"/><use transform="matrix(0.06172839506172839,0,0,0.06172839506172839,18.456790123456788,0)" xlink:href="#M"/><use transform="matrix(0.06172839506172839,0,0,0.06172839506172839,30.80246913580247,0)" xlink:href="#K"/><use transform="matrix(0.06172839506172839,0,0,0.06172839506172839,43.148148148148145,0)" xlink:href="#J"/><use transform="matrix(0.06172839506172839,0,0,0.06172839506172839,55.49382716049382,0)" xlink:href="#N"/></g><path d="M115-194c53 0 69 39 70 98 0 66-23 100-70 100C84 3 66-7 56-30L54 0H23l1-261h32v101c10-23 28-34 59-34zm-8 174c40 0 45-34 45-75 0-40-5-75-45-74-42 0-51 32-51 76 0 43 10 73 51 73" id="O"/><path d="M59-47c-2 24 18 29 38 22v24C64 9 27 4 27-40v-127H5v-23h24l9-43h21v43h35v23H59v120" id="P"/><path d="M206 0h-36l-40-164L89 0H53L-1-190h32L70-26l43-164h34l41 164 42-164h31" id="Q"/><path d="M117-194c89-4 53 116 60 194h-32v-121c0-31-8-49-39-48C34-167 62-67 57 0H25l-1-190h30c1 10-1 24 2 32 11-22 29-35 61-36" id="R"/><g id="d"><use transform="matrix(0.06172839506172839,0,0,0.06172839506172839,0,0)" xlink:href="#O"/><use transform="matrix(0.06172839506172839,0,0,0.06172839506172839,12.345679012345679,0)" xlink:href="#J"/><use transform="matrix(0.06172839506172839,0,0,0.06172839506172839,24.691358024691358,0)" xlink:href="#P"/><use transform="matrix(0.06172839506172839,0,0,0.06172839506172839,30.864197530864196,0)" xlink:href="#Q"/><use transform="matrix(0.06172839506172839,0,0,0.06172839506172839,46.85185185185185,0)" xlink:href="#J"/><use transform="matrix(0.06172839506172839,0,0,0.06172839506172839,59.197530864197525,0)" xlink:href="#J"/><use transform="matrix(0.06172839506172839,0,0,0.06172839506172839,71.5432098765432,0)" xlink:href="#R"/></g><g id="e"><use transform="matrix(0.06172839506172839,0,0,0.06172839506172839,0,0)" xlink:href="#P"/><use transform="matrix(0.06172839506172839,0,0,0.06172839506172839,6.172839506172839,0)" xlink:href="#G"/><use transform="matrix(0.06172839506172839,0,0,0.06172839506172839,18.51851851851852,0)" xlink:href="#J"/></g><path d="M101-234c-31-9-42 10-38 44h38v23H63V0H32v-167H5v-23h27c-7-52 17-82 69-68v24" id="S"/><path d="M24-231v-30h32v30H24zM24 0v-190h32V0H24" id="T"/><path d="M96-169c-40 0-48 33-48 73s9 75 48 75c24 0 41-14 43-38l32 2c-6 37-31 61-74 61-59 0-76-41-82-99-10-93 101-131 147-64 4 7 5 14 7 22l-32 3c-4-21-16-35-41-35" id="U"/><g id="f"><use transform="matrix(0.06172839506172839,0,0,0.06172839506172839,0,0)" xlink:href="#S"/><use transform="matrix(0.06172839506172839,0,0,0.06172839506172839,6.172839506172839,0)" xlink:href="#T"/><use transform="matrix(0.06172839506172839,0,0,0.06172839506172839,11.049382716049383,0)" xlink:href="#R"/><use transform="matrix(0.06172839506172839,0,0,0.06172839506172839,23.395061728395063,0)" xlink:href="#H"/><use transform="matrix(0.06172839506172839,0,0,0.06172839506172839,35.74074074074074,0)" xlink:href="#R"/><use transform="matrix(0.06172839506172839,0,0,0.06172839506172839,48.08641975308642,0)" xlink:href="#U"/><use transform="matrix(0.06172839506172839,0,0,0.06172839506172839,59.19753086419753,0)" xlink:href="#J"/></g><path d="M115-194c55 1 70 41 70 98S169 2 115 4C84 4 66-9 55-30l1 105H24l-1-265h31l2 30c10-21 28-34 59-34zm-8 174c40 0 45-34 45-75s-6-73-45-74c-42 0-51 32-51 76 0 43 10 73 51 73" id="V"/><g id="g"><use transform="matrix(0.06172839506172839,0,0,0.06172839506172839,0,0)" xlink:href="#K"/><use transform="matrix(0.06172839506172839,0,0,0.06172839506172839,12.345679012345679,0)" xlink:href="#J"/><use transform="matrix(0.06172839506172839,0,0,0.06172839506172839,24.691358024691358,0)" xlink:href="#V"/><use transform="matrix(0.06172839506172839,0,0,0.06172839506172839,37.03703703703704,0)" xlink:href="#H"/><use transform="matrix(0.06172839506172839,0,0,0.06172839506172839,49.382716049382715,0)" xlink:href="#I"/><use transform="matrix(0.06172839506172839,0,0,0.06172839506172839,56.72839506172839,0)" xlink:href="#P"/><use transform="matrix(0.06172839506172839,0,0,0.06172839506172839,62.901234567901234,0)" xlink:href="#L"/><use transform="matrix(0.06172839506172839,0,0,0.06172839506172839,81.35802469135803,0)" xlink:href="#J"/><use transform="matrix(0.06172839506172839,0,0,0.06172839506172839,93.70370370370371,0)" xlink:href="#R"/><use transform="matrix(0.06172839506172839,0,0,0.06172839506172839,106.0493827160494,0)" xlink:href="#P"/></g><g id="h"><use transform="matrix(0.06172839506172839,0,0,0.06172839506172839,0,0)" xlink:href="#H"/><use transform="matrix(0.06172839506172839,0,0,0.06172839506172839,12.345679012345679,0)" xlink:href="#R"/><use transform="matrix(0.06172839506172839,0,0,0.06172839506172839,24.691358024691358,0)" xlink:href="#K"/></g><path d="M84 4C-5 8 30-112 23-190h32v120c0 31 7 50 39 49 72-2 45-101 50-169h31l1 190h-30c-1-10 1-25-2-33-11 22-28 36-60 37" id="W"/><g id="i"><use transform="matrix(0.06172839506172839,0,0,0.06172839506172839,0,0)" xlink:href="#Q"/><use transform="matrix(0.06172839506172839,0,0,0.06172839506172839,15.987654320987653,0)" xlink:href="#H"/><use transform="matrix(0.06172839506172839,0,0,0.06172839506172839,28.333333333333332,0)" xlink:href="#I"/><use transform="matrix(0.06172839506172839,0,0,0.06172839506172839,35.67901234567901,0)" xlink:href="#J"/><use transform="matrix(0.06172839506172839,0,0,0.06172839506172839,48.02469135802469,0)" xlink:href="#G"/><use transform="matrix(0.06172839506172839,0,0,0.06172839506172839,60.37037037037037,0)" xlink:href="#M"/><use transform="matrix(0.06172839506172839,0,0,0.06172839506172839,72.71604938271605,0)" xlink:href="#W"/><use transform="matrix(0.06172839506172839,0,0,0.06172839506172839,85.06172839506173,0)" xlink:href="#F"/><use transform="matrix(0.06172839506172839,0,0,0.06172839506172839,96.17283950617285,0)" xlink:href="#J"/></g><path d="M266 0h-40l-56-210L115 0H75L2-248h35L96-30l15-64 43-154h32l59 218 59-218h35" id="X"/><g id="j"><use transform="matrix(0.06172839506172839,0,0,0.06172839506172839,0,0)" xlink:href="#X"/><use transform="matrix(0.06172839506172839,0,0,0.06172839506172839,20.123456790123456,0)" xlink:href="#H"/><use transform="matrix(0.06172839506172839,0,0,0.06172839506172839,32.46913580246913,0)" xlink:href="#I"/><use transform="matrix(0.06172839506172839,0,0,0.06172839506172839,39.81481481481481,0)" xlink:href="#G"/><use transform="matrix(0.06172839506172839,0,0,0.06172839506172839,52.16049382716049,0)" xlink:href="#M"/><use transform="matrix(0.06172839506172839,0,0,0.06172839506172839,64.50617283950616,0)" xlink:href="#W"/><use transform="matrix(0.06172839506172839,0,0,0.06172839506172839,76.85185185185185,0)" xlink:href="#F"/><use transform="matrix(0.06172839506172839,0,0,0.06172839506172839,87.96296296296296,0)" xlink:href="#J"/></g><path d="M63-220v92h138v28H63V0H30v-248h175v28H63" id="Y"/><g id="k"><use transform="matrix(0.06172839506172839,0,0,0.06172839506172839,0,0)" xlink:href="#Y"/><use transform="matrix(0.06172839506172839,0,0,0.06172839506172839,13.518518518518517,0)" xlink:href="#T"/><use transform="matrix(0.06172839506172839,0,0,0.06172839506172839,18.39506172839506,0)" xlink:href="#R"/><use transform="matrix(0.06172839506172839,0,0,0.06172839506172839,30.74074074074074,0)" xlink:href="#H"/><use transform="matrix(0.06172839506172839,0,0,0.06172839506172839,43.08641975308642,0)" xlink:href="#R"/><use transform="matrix(0.06172839506172839,0,0,0.06172839506172839,55.432098765432094,0)" xlink:href="#U"/><use transform="matrix(0.06172839506172839,0,0,0.06172839506172839,66.5432098765432,0)" xlink:href="#J"/></g><path d="M185-189c-5-48-123-54-124 2 14 75 158 14 163 119 3 78-121 87-175 55-17-10-28-26-33-46l33-7c5 56 141 63 141-1 0-78-155-14-162-118-5-82 145-84 179-34 5 7 8 16 11 25" id="Z"/><g id="l"><use transform="matrix(0.06172839506172839,0,0,0.06172839506172839,0,0)" xlink:href="#Z"/><use transform="matrix(0.06172839506172839,0,0,0.06172839506172839,14.814814814814813,0)" xlink:href="#G"/><use transform="matrix(0.06172839506172839,0,0,0.06172839506172839,27.160493827160494,0)" xlink:href="#J"/><use transform="matrix(0.06172839506172839,0,0,0.06172839506172839,39.50617283950617,0)" xlink:href="#N"/><use transform="matrix(0.06172839506172839,0,0,0.06172839506172839,44.382716049382715,0)" xlink:href="#S"/></g><path d="M143 0L79-87 56-68V0H24v-261h32v163l83-92h37l-77 82L181 0h-38" id="aa"/><g id="m"><use transform="matrix(0.06172839506172839,0,0,0.06172839506172839,0,0)" xlink:href="#Z"/><use transform="matrix(0.06172839506172839,0,0,0.06172839506172839,14.814814814814813,0)" xlink:href="#P"/><use transform="matrix(0.06172839506172839,0,0,0.06172839506172839,20.98765432098765,0)" xlink:href="#M"/><use transform="matrix(0.06172839506172839,0,0,0.06172839506172839,33.33333333333333,0)" xlink:href="#U"/><use transform="matrix(0.06172839506172839,0,0,0.06172839506172839,44.44444444444444,0)" xlink:href="#aa"/></g><g id="n"><use transform="matrix(0.06172839506172839,0,0,0.06172839506172839,0,0)" xlink:href="#T"/><use transform="matrix(0.06172839506172839,0,0,0.06172839506172839,4.876543209876543,0)" xlink:href="#P"/><use transform="matrix(0.06172839506172839,0,0,0.06172839506172839,11.049382716049383,0)" xlink:href="#J"/><use transform="matrix(0.06172839506172839,0,0,0.06172839506172839,23.395061728395063,0)" xlink:href="#L"/></g><path d="M30-248c87 1 191-15 191 75 0 78-77 80-158 76V0H30v-248zm33 125c57 0 124 11 124-50 0-59-68-47-124-48v98" id="ab"/><path d="M177-190C167-65 218 103 67 71c-23-6-38-20-44-43l32-5c15 47 100 32 89-28v-30C133-14 115 1 83 1 29 1 15-40 15-95c0-56 16-97 71-98 29-1 48 16 59 35 1-10 0-23 2-32h30zM94-22c36 0 50-32 50-73 0-42-14-75-50-75-39 0-46 34-46 75s6 73 46 73" id="ac"/><g id="o"><use transform="matrix(0.06172839506172839,0,0,0.06172839506172839,0,0)" xlink:href="#ab"/><use transform="matrix(0.06172839506172839,0,0,0.06172839506172839,14.814814814814813,0)" xlink:href="#T"/><use transform="matrix(0.06172839506172839,0,0,0.06172839506172839,19.691358024691354,0)" xlink:href="#U"/><use transform="matrix(0.06172839506172839,0,0,0.06172839506172839,30.802469135802465,0)" xlink:href="#aa"/><use transform="matrix(0.06172839506172839,0,0,0.06172839506172839,41.913580246913575,0)" xlink:href="#T"/><use transform="matrix(0.06172839506172839,0,0,0.06172839506172839,46.79012345679012,0)" xlink:href="#R"/><use transform="matrix(0.06172839506172839,0,0,0.06172839506172839,59.1358024691358,0)" xlink:href="#ac"/></g><path d="M140-251c81 0 123 46 123 126C263-46 219 4 140 4 59 4 17-45 17-125s42-126 123-126zm0 227c63 0 89-41 89-101s-29-99-89-99c-61 0-89 39-89 99S79-25 140-24" id="ad"/><g id="p"><use transform="matrix(0.06172839506172839,0,0,0.06172839506172839,0,0)" xlink:href="#ad"/><use transform="matrix(0.06172839506172839,0,0,0.06172839506172839,17.28395061728395,0)" xlink:href="#I"/><use transform="matrix(0.06172839506172839,0,0,0.06172839506172839,24.629629629629626,0)" xlink:href="#K"/><use transform="matrix(0.06172839506172839,0,0,0.06172839506172839,36.9753086419753,0)" xlink:href="#J"/><use transform="matrix(0.06172839506172839,0,0,0.06172839506172839,49.32098765432098,0)" xlink:href="#I"/></g><g id="q"><use transform="matrix(0.06172839506172839,0,0,0.06172839506172839,0,0)" xlink:href="#ab"/><use transform="matrix(0.06172839506172839,0,0,0.06172839506172839,14.814814814814813,0)" xlink:href="#T"/><use transform="matrix(0.06172839506172839,0,0,0.06172839506172839,19.691358024691354,0)" xlink:href="#U"/><use transform="matrix(0.06172839506172839,0,0,0.06172839506172839,30.802469135802465,0)" xlink:href="#aa"/><use transform="matrix(0.06172839506172839,0,0,0.06172839506172839,41.913580246913575,0)" xlink:href="#J"/><use transform="matrix(0.06172839506172839,0,0,0.06172839506172839,54.25925925925925,0)" xlink:href="#I"/></g><path d="M127-220V0H93v-220H8v-28h204v28h-85" id="ae"/><path d="M179-190L93 31C79 59 56 82 12 73V49c39 6 53-20 64-50L1-190h34L92-34l54-156h33" id="af"/><g id="r"><use transform="matrix(0.06172839506172839,0,0,0.06172839506172839,0,0)" xlink:href="#ae"/><use transform="matrix(0.06172839506172839,0,0,0.06172839506172839,12.716049382716047,0)" xlink:href="#I"/><use transform="matrix(0.06172839506172839,0,0,0.06172839506172839,20.061728395061728,0)" xlink:href="#M"/><use transform="matrix(0.06172839506172839,0,0,0.06172839506172839,32.407407407407405,0)" xlink:href="#N"/><use transform="matrix(0.06172839506172839,0,0,0.06172839506172839,37.28395061728395,0)" xlink:href="#N"/><use transform="matrix(0.06172839506172839,0,0,0.06172839506172839,42.160493827160494,0)" xlink:href="#J"/><use transform="matrix(0.06172839506172839,0,0,0.06172839506172839,54.50617283950617,0)" xlink:href="#af"/></g><path d="M27 0v-27h64v-190l-56 39v-29l58-41h29v221h61V0H27" id="ag"/><use transform="matrix(0.049382716049382706,0,0,0.049382716049382706,0,0)" xlink:href="#ag" id="s"/><path d="M101-251c68 0 85 55 85 127S166 4 100 4C33 4 14-52 14-124c0-73 17-127 87-127zm-1 229c47 0 54-49 54-102s-4-102-53-102c-51 0-55 48-55 102 0 53 5 102 54 102" id="ah"/><path d="M33 0v-38h34V0H33" id="ai"/><path d="M80-196l47-18 7 23-49 13 32 44-20 13-27-46-27 45-21-12 33-44-49-13 8-23 47 19-2-53h23" id="aj"/><g id="t"><use transform="matrix(0.049382716049382706,0,0,0.049382716049382706,0,0)" xlink:href="#ah"/><use transform="matrix(0.049382716049382706,0,0,0.049382716049382706,9.87654320987654,0)" xlink:href="#ai"/><use transform="matrix(0.049382716049382706,0,0,0.049382716049382706,14.814814814814811,0)" xlink:href="#ai"/><use transform="matrix(0.049382716049382706,0,0,0.049382716049382706,19.75308641975308,0)" xlink:href="#aj"/></g><g id="u"><use transform="matrix(0.049382716049382706,0,0,0.049382716049382706,0,0)" xlink:href="#ag"/><use transform="matrix(0.049382716049382706,0,0,0.049382716049382706,9.87654320987654,0)" xlink:href="#ai"/><use transform="matrix(0.049382716049382706,0,0,0.049382716049382706,14.814814814814811,0)" xlink:href="#ai"/><use transform="matrix(0.049382716049382706,0,0,0.049382716049382706,19.75308641975308,0)" xlink:href="#aj"/></g><path d="M232-93c-1 65-40 97-104 97C67 4 28-28 28-90v-158h33c8 89-33 224 67 224 102 0 64-133 71-224h33v155" id="ak"/><g id="v"><use transform="matrix(0.06172839506172839,0,0,0.06172839506172839,0,0)" xlink:href="#ak"/><use transform="matrix(0.06172839506172839,0,0,0.06172839506172839,15.987654320987653,0)" xlink:href="#F"/><use transform="matrix(0.06172839506172839,0,0,0.06172839506172839,27.098765432098766,0)" xlink:href="#J"/><use transform="matrix(0.06172839506172839,0,0,0.06172839506172839,39.44444444444444,0)" xlink:href="#F"/></g><path d="M212-179c-10-28-35-45-73-45-59 0-87 40-87 99 0 60 29 101 89 101 43 0 62-24 78-52l27 14C228-24 195 4 139 4 59 4 22-46 18-125c-6-104 99-153 187-111 19 9 31 26 39 46" id="al"/><g id="w"><use transform="matrix(0.06172839506172839,0,0,0.06172839506172839,0,0)" xlink:href="#al"/><use transform="matrix(0.06172839506172839,0,0,0.06172839506172839,15.987654320987653,0)" xlink:href="#M"/><use transform="matrix(0.06172839506172839,0,0,0.06172839506172839,28.333333333333332,0)" xlink:href="#R"/><use transform="matrix(0.06172839506172839,0,0,0.06172839506172839,40.67901234567901,0)" xlink:href="#P"/><use transform="matrix(0.06172839506172839,0,0,0.06172839506172839,46.851851851851855,0)" xlink:href="#H"/><use transform="matrix(0.06172839506172839,0,0,0.06172839506172839,59.19753086419753,0)" xlink:href="#T"/><use transform="matrix(0.06172839506172839,0,0,0.06172839506172839,64.07407407407408,0)" xlink:href="#R"/><use transform="matrix(0.06172839506172839,0,0,0.06172839506172839,76.41975308641976,0)" xlink:href="#F"/></g><path d="M233-177c-1 41-23 64-60 70L243 0h-38l-65-103H63V0H30v-248c88 3 205-21 203 71zM63-129c60-2 137 13 137-47 0-61-80-42-137-45v92" id="am"/><g id="x"><use transform="matrix(0.06172839506172839,0,0,0.06172839506172839,0,0)" xlink:href="#am"/><use transform="matrix(0.06172839506172839,0,0,0.06172839506172839,15.987654320987653,0)" xlink:href="#J"/><use transform="matrix(0.06172839506172839,0,0,0.06172839506172839,28.333333333333332,0)" xlink:href="#V"/><use transform="matrix(0.06172839506172839,0,0,0.06172839506172839,40.67901234567901,0)" xlink:href="#M"/><use transform="matrix(0.06172839506172839,0,0,0.06172839506172839,53.02469135802469,0)" xlink:href="#I"/><use transform="matrix(0.06172839506172839,0,0,0.06172839506172839,60.37037037037037,0)" xlink:href="#P"/></g><g id="y"><use transform="matrix(0.06172839506172839,0,0,0.06172839506172839,0,0)" xlink:href="#al"/><use transform="matrix(0.06172839506172839,0,0,0.06172839506172839,15.987654320987653,0)" xlink:href="#M"/><use transform="matrix(0.06172839506172839,0,0,0.06172839506172839,28.333333333333332,0)" xlink:href="#L"/><use transform="matrix(0.06172839506172839,0,0,0.06172839506172839,46.79012345679012,0)" xlink:href="#V"/><use transform="matrix(0.06172839506172839,0,0,0.06172839506172839,59.1358024691358,0)" xlink:href="#H"/><use transform="matrix(0.06172839506172839,0,0,0.06172839506172839,71.48148148148148,0)" xlink:href="#R"/><use transform="matrix(0.06172839506172839,0,0,0.06172839506172839,83.82716049382717,0)" xlink:href="#af"/></g><path d="M137 0h-34L2-248h35l83 218 83-218h36" id="an"/><g id="z"><use transform="matrix(0.06172839506172839,0,0,0.06172839506172839,0,0)" xlink:href="#an"/><use transform="matrix(0.06172839506172839,0,0,0.06172839506172839,13.148148148148147,0)" xlink:href="#H"/><use transform="matrix(0.06172839506172839,0,0,0.06172839506172839,25.493827160493826,0)" xlink:href="#N"/><use transform="matrix(0.06172839506172839,0,0,0.06172839506172839,30.370370370370367,0)" xlink:href="#W"/><use transform="matrix(0.06172839506172839,0,0,0.06172839506172839,42.716049382716044,0)" xlink:href="#H"/><use transform="matrix(0.06172839506172839,0,0,0.06172839506172839,55.06172839506172,0)" xlink:href="#P"/><use transform="matrix(0.06172839506172839,0,0,0.06172839506172839,61.23456790123456,0)" xlink:href="#T"/><use transform="matrix(0.06172839506172839,0,0,0.06172839506172839,66.1111111111111,0)" xlink:href="#M"/><use transform="matrix(0.06172839506172839,0,0,0.06172839506172839,78.45679012345678,0)" xlink:href="#R"/></g><path d="M143 4C61 4 22-44 18-125c-5-107 100-154 193-111 17 8 29 25 37 43l-32 9c-13-25-37-40-76-40-61 0-88 39-88 99 0 61 29 100 91 101 35 0 62-11 79-27v-45h-74v-28h105v86C228-13 192 4 143 4" id="ao"/><g id="A"><use transform="matrix(0.06172839506172839,0,0,0.06172839506172839,0,0)" xlink:href="#ao"/><use transform="matrix(0.06172839506172839,0,0,0.06172839506172839,17.28395061728395,0)" xlink:href="#J"/><use transform="matrix(0.06172839506172839,0,0,0.06172839506172839,29.629629629629626,0)" xlink:href="#R"/><use transform="matrix(0.06172839506172839,0,0,0.06172839506172839,41.9753086419753,0)" xlink:href="#J"/><use transform="matrix(0.06172839506172839,0,0,0.06172839506172839,54.32098765432098,0)" xlink:href="#I"/><use transform="matrix(0.06172839506172839,0,0,0.06172839506172839,61.66666666666666,0)" xlink:href="#H"/><use transform="matrix(0.06172839506172839,0,0,0.06172839506172839,74.01234567901234,0)" xlink:href="#N"/></g><g id="B"><use transform="matrix(0.06172839506172839,0,0,0.06172839506172839,0,0)" xlink:href="#N"/><use transform="matrix(0.06172839506172839,0,0,0.06172839506172839,4.876543209876543,0)" xlink:href="#J"/><use transform="matrix(0.06172839506172839,0,0,0.06172839506172839,17.22222222222222,0)" xlink:href="#K"/><use transform="matrix(0.06172839506172839,0,0,0.06172839506172839,29.5679012345679,0)" xlink:href="#ac"/><use transform="matrix(0.06172839506172839,0,0,0.06172839506172839,41.913580246913575,0)" xlink:href="#J"/><use transform="matrix(0.06172839506172839,0,0,0.06172839506172839,54.25925925925925,0)" xlink:href="#I"/></g><g id="C"><use transform="matrix(0.06172839506172839,0,0,0.06172839506172839,0,0)" xlink:href="#Z"/><use transform="matrix(0.06172839506172839,0,0,0.06172839506172839,14.814814814814813,0)" xlink:href="#G"/><use transform="matrix(0.06172839506172839,0,0,0.06172839506172839,27.160493827160494,0)" xlink:href="#H"/><use transform="matrix(0.06172839506172839,0,0,0.06172839506172839,39.50617283950617,0)" xlink:href="#I"/><use transform="matrix(0.06172839506172839,0,0,0.06172839506172839,46.85185185185185,0)" xlink:href="#J"/><use transform="matrix(0.06172839506172839,0,0,0.06172839506172839,59.197530864197525,0)" xlink:href="#K"/></g><g id="D"><use transform="matrix(0.06172839506172839,0,0,0.06172839506172839,0,0)" xlink:href="#L"/><use transform="matrix(0.06172839506172839,0,0,0.06172839506172839,18.456790123456788,0)" xlink:href="#M"/><use transform="matrix(0.06172839506172839,0,0,0.06172839506172839,30.80246913580247,0)" xlink:href="#K"/><use transform="matrix(0.06172839506172839,0,0,0.06172839506172839,43.148148148148145,0)" xlink:href="#J"/><use transform="matrix(0.06172839506172839,0,0,0.06172839506172839,55.49382716049382,0)" xlink:href="#N"/></g></defs></g></svg>